<svg id="Layer_1" data-name="Layer 1" xmlns="http://www.w3.org/2000/svg" viewBox="0 0 48 48"><defs><style>.cls-1{fill:none;stroke:#000;stroke-linecap:round;stroke-linejoin:round;stroke-width:2px;}</style></defs><title>plum</title><path class="cls-1" d="M26,40a8.07,8.07,0,0,1-6,3c-5.52,0-10-6.72-10-15s4.48-15,10-15a8.08,8.08,0,0,1,6,3"/><path class="cls-1" d="M18,7c3,0,4.73,6.57,4.73,6.57A9.69,9.69,0,0,1,26,13c6.63,0,12,6.72,12,15S32.63,43,26,43a9.75,9.75,0,0,1-3.28-.57"/><path class="cls-1" d="M21.34,10S23,1,37,5C37,5,35,14,21.34,10Z"/><rect class="cls-1" x="-83" y="-423" width="690" height="690"/></svg>